<?xml version="1.0" encoding="utf-8"?>
<!-- Generator: Adobe Illustrator 16.0.0, SVG Export Plug-In . SVG Version: 6.00 Build 0)  -->
<!DOCTYPE svg PUBLIC "-//W3C//DTD SVG 1.1//EN" "http://www.w3.org/Graphics/SVG/1.1/DTD/svg11.dtd">
<svg version="1.1" xmlns="http://www.w3.org/2000/svg" xmlns:xlink="http://www.w3.org/1999/xlink" x="0px" y="0px" width="2000px"
	 height="2000px" viewBox="0 0 2000 2000" enable-background="new 0 0 2000 2000" xml:space="preserve">
<g id="Layer_1">
	<circle fill="#F4F4F4" cx="1000" cy="1000" r="1000"/>
	<circle fill="#D51F3F" cx="1000" cy="995.79" r="824.872"/>
</g>
<g id="Layer_2">
	<path fill="#F4F4F4" d="M1286.227,567.555l-83.955,83.954l-524.948,524.948l-83.954,83.955c-33.249,33.249-33.25,87.156,0,120.406
		c33.249,33.249,87.156,33.248,120.405-0.001l83.955-83.954l524.948-524.948l83.953-83.954c33.25-33.25,33.25-87.157,0-120.406
		C1373.383,534.306,1319.477,534.305,1286.227,567.555z"/>
	<path fill="#F4F4F4" d="M713.774,567.555l83.955,83.954l524.948,524.948l83.953,83.955c33.25,33.249,33.25,87.156,0,120.406
		c-33.248,33.249-87.156,33.248-120.405-0.001l-83.954-83.954L677.323,771.915l-83.953-83.954c-33.25-33.25-33.25-87.157,0-120.406
		C626.618,534.306,680.524,534.305,713.774,567.555z"/>
</g>
</svg>
