<?xml version="1.0" encoding="utf-8"?>
<!-- Generator: Adobe Illustrator 16.0.0, SVG Export Plug-In . SVG Version: 6.00 Build 0)  -->
<!DOCTYPE svg PUBLIC "-//W3C//DTD SVG 1.1//EN" "http://www.w3.org/Graphics/SVG/1.1/DTD/svg11.dtd">
<svg version="1.1" xmlns="http://www.w3.org/2000/svg" xmlns:xlink="http://www.w3.org/1999/xlink" x="0px" y="0px" width="2000px"
	 height="2000px" viewBox="0 0 2000 2000" enable-background="new 0 0 2000 2000" xml:space="preserve">
<g id="Layer_1">
	<circle fill="#F4F4F4" cx="1000" cy="1000" r="1000"/>
	<circle fill="#D51F3F" cx="1000" cy="995.79" r="824.872"/>
</g>
<g id="Layer_2">
	<path fill="#F4F4F4" d="M1489.924,585.825h-118.729H628.806H510.077c-47.021,0-85.14,38.118-85.14,85.141
		c0,47.021,38.119,85.139,85.14,85.139h118.729h742.389h118.729c47.022,0,85.14-38.119,85.14-85.141
		C1575.063,623.943,1536.946,585.825,1489.924,585.825z"/>
	<path fill="#F4F4F4" d="M1489.924,910.65h-118.729H628.806H510.077c-47.021,0-85.14,38.118-85.14,85.141
		c0,47.021,38.119,85.139,85.14,85.139h118.729h742.389h118.729c47.022,0,85.14-38.118,85.14-85.14
		C1575.063,948.769,1536.946,910.65,1489.924,910.65z"/>
	<path fill="#F4F4F4" d="M1489.924,1235.476h-118.729H628.806H510.077c-47.021,0-85.14,38.118-85.14,85.141
		c0,47.021,38.119,85.139,85.14,85.139h118.729h742.389h118.729c47.022,0,85.14-38.118,85.14-85.141
		C1575.063,1273.594,1536.946,1235.476,1489.924,1235.476z"/>
</g>
</svg>
